<svg xmlns="http://www.w3.org/2000/svg" viewBox="0 0 30 30"><path d="M24 4H6a2 2 0 0 0-2 2v18a2 2 0 0 0 2 2h18a2 2 0 0 0 2-2V6a2 2 0 0 0-2-2zM9.848 21.53a1 1 0 0 1-1.696-1.06l.27-.432c.173-.022.36-.038.578-.038.604 0 1.105.191 1.526.445l-.678 1.085zM9 19a1 1 0 0 1 0-2h1.321l3.5-5.6-1.169-1.87a1.001 1.001 0 0 1 1.696-1.06L15 9.513l.652-1.043a1 1 0 1 1 1.696 1.06L12.679 17h3.187c.255.183.537.467.835.941.221.351.329.709.389 1.059H9zm12.848 1.47a1.001 1.001 0 0 1-1.696 1.06l-4.52-7.232c.08-.199.183-.413.336-.657a2.9 2.9 0 0 1 1.007-.968L19.679 17H21a1 1 0 0 1 0 2h-.071l.919 1.47z"/></svg>