<svg xmlns="http://www.w3.org/2000/svg" viewBox="0 0 30 30"><path d="M7.623 3.21L18 13.587l2.678-2.678c-3.66-2.22-8.56-5.198-10.764-6.537l-1.476-.894a1.833 1.833 0 0 0-.815-.266zM6.039 4.454c-.02.114-.039.229-.039.352v20.504c0 .086.017.166.03.248L16.585 15 6.039 4.453zm16.398 7.524L19.415 15l2.97 2.97c1.575-.953 2.665-1.616 2.786-1.689.535-.327.837-.82.828-1.36-.008-.528-.31-1.001-.824-1.292-.115-.066-1.19-.715-2.736-1.652zM18 16.414L7.654 26.76c.201-.035.402-.095.594-.211l12.377-7.51L18 16.414z"/></svg>